<svg width="512" height="512" viewBox="0 0 64 64" fill="none" xmlns="http://www.w3.org/2000/svg">
  <path
    d="M20 5H44L57 18V44L44 57H20L7 44V18L20 5Z"
    fill="#18202B"
    fill-opacity="0.96"
    stroke="#263241"
    stroke-opacity="0.82"
    stroke-linejoin="round"
    stroke-width="1.5"
  />
  <path
    d="M21.5 10H42.8L52 19.2V42.4L42.8 51.6H21.5L12.3 42.4V19.2L21.5 10Z"
    fill="#121821"
    fill-opacity="0.82"
  />
  <path
    d="M15 18H22.2L27.8 37.8L32 26.6L36.2 37.8L41.8 18H49L39.5 46H34.4L32 39.4L29.6 46H24.5L15 18Z"
    fill="#F3F7FB"
  />
  <path
    d="M40.2 17.8H50L46.4 21.5H42.9V29.6H47.2L44.2 33.1H42.9V46H38.5V17.8H40.2Z"
    fill="#D79A3D"
  />
  <path
    d="M49.8 13.2L53.8 17.2L49.8 21.2"
    stroke="#D79A3D"
    stroke-opacity="0.92"
    stroke-linecap="round"
    stroke-linejoin="round"
    stroke-width="1.7"
  />
  <path
    d="M12.5 46.8L16.8 42.5"
    stroke="#4F8CFF"
    stroke-opacity="0.48"
    stroke-linecap="round"
    stroke-width="1.5"
  />
</svg>
