<svg width="1920" height="1080" viewBox="0 0 1920 1080" fill="none" xmlns="http://www.w3.org/2000/svg">
  <rect width="1920" height="1080" fill="#0B0F14" />
  <circle cx="310" cy="204" r="250" fill="url(#paint0_radial)" fill-opacity="0.95" />
  <circle cx="1548" cy="236" r="218" fill="url(#paint1_radial)" fill-opacity="0.88" />
  <circle cx="1532" cy="864" r="268" fill="url(#paint2_radial)" fill-opacity="0.82" />
  <circle cx="472" cy="872" r="214" fill="url(#paint3_radial)" fill-opacity="0.72" />
  <g opacity="0.22">
    <path d="M0 171H1920" stroke="#263241" />
    <path d="M0 342H1920" stroke="#263241" />
    <path d="M0 513H1920" stroke="#263241" />
    <path d="M0 684H1920" stroke="#263241" />
    <path d="M0 855H1920" stroke="#263241" />
    <path d="M0 1026H1920" stroke="#263241" />
    <path d="M192 0V1080" stroke="#263241" />
    <path d="M384 0V1080" stroke="#263241" />
    <path d="M576 0V1080" stroke="#263241" />
    <path d="M768 0V1080" stroke="#263241" />
    <path d="M960 0V1080" stroke="#263241" />
    <path d="M1152 0V1080" stroke="#263241" />
    <path d="M1344 0V1080" stroke="#263241" />
    <path d="M1536 0V1080" stroke="#263241" />
    <path d="M1728 0V1080" stroke="#263241" />
  </g>
  <rect x="116" y="116" width="1688" height="848" rx="48" fill="url(#paint4_linear)" fill-opacity="0.32" />
  <rect x="116.5" y="116.5" width="1687" height="847" rx="47.5" stroke="url(#paint5_linear)" />
  <g filter="url(#filter0_d)">
    <g transform="translate(286 230) scale(6.1)">
      <path
        d="M20 5H44L57 18V44L44 57H20L7 44V18L20 5Z"
        fill="#18202B"
        fill-opacity="0.96"
        stroke="#263241"
        stroke-opacity="0.82"
        stroke-linejoin="round"
        stroke-width="1.5"
      />
      <path
        d="M21.5 10H42.8L52 19.2V42.4L42.8 51.6H21.5L12.3 42.4V19.2L21.5 10Z"
        fill="#121821"
        fill-opacity="0.82"
      />
      <path
        d="M15 18H22.2L27.8 37.8L32 26.6L36.2 37.8L41.8 18H49L39.5 46H34.4L32 39.4L29.6 46H24.5L15 18Z"
        fill="#F3F7FB"
      />
      <path
        d="M40.2 17.8H50L46.4 21.5H42.9V29.6H47.2L44.2 33.1H42.9V46H38.5V17.8H40.2Z"
        fill="#D79A3D"
      />
      <path
        d="M49.8 13.2L53.8 17.2L49.8 21.2"
        stroke="#D79A3D"
        stroke-opacity="0.92"
        stroke-linecap="round"
        stroke-linejoin="round"
        stroke-width="1.7"
      />
      <path
        d="M12.5 46.8L16.8 42.5"
        stroke="#4F8CFF"
        stroke-opacity="0.48"
        stroke-linecap="round"
        stroke-width="1.5"
      />
    </g>
  </g>
  <g>
    <text
      x="896"
      y="530"
      fill="#F3F7FB"
      font-family="Bahnschrift, 'Segoe UI Variable Display', 'Aptos Display', 'Segoe UI', sans-serif"
      font-size="152"
      font-weight="700"
      letter-spacing="22"
    >
      WEBFORJA
    </text>
  </g>
  <defs>
    <filter id="filter0_d" x="132" y="92" width="654" height="654" filterUnits="userSpaceOnUse" color-interpolation-filters="sRGB">
      <feFlood flood-opacity="0" result="BackgroundImageFix" />
      <feColorMatrix in="SourceAlpha" type="matrix" values="0 0 0 0 0 0 0 0 0 0 0 0 0 0 0 0 0 0 127 0" result="hardAlpha" />
      <feOffset dy="34" />
      <feGaussianBlur stdDeviation="38" />
      <feComposite in2="hardAlpha" operator="out" />
      <feColorMatrix type="matrix" values="0 0 0 0 0.0117647 0 0 0 0 0.0313726 0 0 0 0 0.0705882 0 0 0 0.42 0" />
      <feBlend mode="normal" in2="BackgroundImageFix" result="effect1_dropShadow_0_1" />
      <feBlend mode="normal" in="SourceGraphic" in2="effect1_dropShadow_0_1" result="shape" />
    </filter>
    <radialGradient id="paint0_radial" cx="0" cy="0" r="1" gradientUnits="userSpaceOnUse" gradientTransform="translate(310 204) rotate(90) scale(250)">
      <stop stop-color="#4F8CFF" stop-opacity="0.34" />
      <stop offset="1" stop-color="#4F8CFF" stop-opacity="0" />
    </radialGradient>
    <radialGradient id="paint1_radial" cx="0" cy="0" r="1" gradientUnits="userSpaceOnUse" gradientTransform="translate(1548 236) rotate(90) scale(218)">
      <stop stop-color="#D79A3D" stop-opacity="0.28" />
      <stop offset="1" stop-color="#D79A3D" stop-opacity="0" />
    </radialGradient>
    <radialGradient id="paint2_radial" cx="0" cy="0" r="1" gradientUnits="userSpaceOnUse" gradientTransform="translate(1532 864) rotate(90) scale(268)">
      <stop stop-color="#D79A3D" stop-opacity="0.16" />
      <stop offset="1" stop-color="#D79A3D" stop-opacity="0" />
    </radialGradient>
    <radialGradient id="paint3_radial" cx="0" cy="0" r="1" gradientUnits="userSpaceOnUse" gradientTransform="translate(472 872) rotate(90) scale(214)">
      <stop stop-color="#4F8CFF" stop-opacity="0.14" />
      <stop offset="1" stop-color="#4F8CFF" stop-opacity="0" />
    </radialGradient>
    <linearGradient id="paint4_linear" x1="960" y1="116" x2="960" y2="964" gradientUnits="userSpaceOnUse">
      <stop stop-color="#18202B" stop-opacity="0.62" />
      <stop offset="1" stop-color="#121821" stop-opacity="0.34" />
    </linearGradient>
    <linearGradient id="paint5_linear" x1="209" y1="152" x2="1687" y2="911" gradientUnits="userSpaceOnUse">
      <stop stop-color="#263241" stop-opacity="0.62" />
      <stop offset="0.55" stop-color="#263241" stop-opacity="0.22" />
      <stop offset="1" stop-color="#D79A3D" stop-opacity="0.16" />
    </linearGradient>
  </defs>
</svg>
